<svg id="svg" version="1.1" xmlns="http://www.w3.org/2000/svg" xmlns:xlink="http://www.w3.org/1999/xlink" width="400" height="399.748427672956" viewBox="0, 0, 400,399.748427672956"><g id="svgg"><path id="path0" d="M263.019 78.130 C 254.719 78.497,254.202 78.573,247.673 80.394 C 195.981 94.807,149.008 137.896,130.690 187.704 L 129.565 190.764 129.812 194.855 C 130.182 200.984,131.370 208.416,132.693 212.872 C 133.314 214.962,132.536 213.953,130.842 210.472 C 128.699 206.068,127.566 202.305,126.464 195.939 L 125.886 192.595 124.588 198.499 C 120.984 214.894,118.766 230.475,117.605 247.547 C 117.228 253.096,116.788 272.197,117.043 271.950 C 117.114 271.881,118.666 269.125,120.492 265.827 C 129.103 250.272,138.747 234.469,150.310 216.971 L 156.135 208.157 151.771 195.616 C 149.371 188.718,147.444 183.038,147.489 182.994 C 147.533 182.949,149.710 188.229,152.326 194.727 C 154.942 201.225,157.144 206.537,157.220 206.532 C 157.296 206.527,158.094 205.429,158.994 204.093 C 162.083 199.503,170.495 187.791,175.569 181.017 L 180.649 174.236 174.838 157.531 C 171.642 148.343,169.063 140.790,169.107 140.746 C 169.151 140.703,171.883 147.479,175.178 155.805 C 178.473 164.131,181.331 171.327,181.530 171.795 L 181.891 172.647 184.216 169.669 C 190.928 161.072,199.865 150.384,206.078 143.523 C 208.062 141.333,209.990 139.181,210.362 138.742 L 211.038 137.944 207.767 128.569 C 205.968 123.412,204.540 119.150,204.592 119.097 C 204.645 119.045,206.432 122.955,208.563 127.788 L 212.438 136.574 216.722 132.152 C 219.078 129.720,221.039 127.647,221.079 127.546 C 221.137 127.401,216.761 109.520,216.185 107.547 C 216.104 107.270,216.111 107.113,216.201 107.197 C 216.291 107.280,217.840 111.467,219.644 116.500 C 221.448 121.532,222.967 125.692,223.019 125.744 C 223.071 125.796,224.620 124.476,226.462 122.811 C 235.019 115.077,243.161 109.125,249.602 105.896 C 251.769 104.810,251.432 105.078,248.095 107.094 C 220.678 123.655,177.050 175.948,138.975 237.885 C 117.827 272.287,99.874 308.911,99.874 317.650 C 99.874 325.107,108.384 322.837,111.415 314.573 C 138.664 240.269,202.998 145.390,253.082 105.644 C 255.925 103.387,256.770 102.873,254.845 104.569 C 248.257 110.374,231.447 126.818,231.447 127.457 C 231.447 127.576,245.148 132.812,261.895 139.091 C 278.641 145.371,292.309 150.543,292.267 150.584 C 292.225 150.626,278.121 145.857,260.923 139.986 L 229.655 129.312 228.323 130.757 C 223.926 135.523,222.121 137.705,222.435 137.873 C 222.618 137.970,230.101 140.796,239.064 144.154 C 248.027 147.511,255.320 150.298,255.270 150.348 C 255.221 150.398,247.563 147.835,238.253 144.653 C 228.943 141.471,221.254 138.873,221.166 138.880 C 221.025 138.890,213.913 147.259,212.605 148.953 L 212.103 149.604 238.501 159.501 C 253.021 164.944,264.860 169.437,264.812 169.486 C 264.763 169.535,252.584 165.431,237.748 160.365 C 222.912 155.300,210.747 151.193,210.715 151.238 C 210.683 151.284,209.694 152.509,208.517 153.962 C 199.958 164.527,187.944 180.759,178.402 194.649 C 172.288 203.548,161.006 220.834,161.006 221.302 C 161.006 221.417,169.274 224.611,179.379 228.400 C 189.484 232.188,197.712 235.328,197.663 235.377 C 197.593 235.447,162.176 223.443,160.469 222.772 C 159.265 222.298,127.977 276.566,129.066 277.239 C 130.446 278.092,157.961 278.420,164.004 277.656 C 185.288 274.963,195.367 267.217,210.776 241.707 C 213.308 237.516,222.547 221.419,222.801 220.756 C 223.218 219.670,208.884 210.532,196.352 203.896 C 192.273 201.736,192.216 201.679,194.340 201.885 C 202.020 202.632,211.908 206.259,222.742 212.304 C 224.769 213.436,226.555 214.283,226.710 214.187 C 226.865 214.091,230.457 211.350,234.691 208.095 C 238.925 204.840,249.465 196.854,258.113 190.347 C 274.680 177.882,276.174 176.625,283.112 169.311 C 298.996 152.568,302.261 140.092,298.714 109.686 C 295.008 77.907,293.723 76.771,263.019 78.130 " stroke="none" fill="#1a1a1a" fill-rule="evenodd"></path><path id="path1" d="M189.057 0.158 C 72.989 7.272,-12.089 108.570,1.405 223.585 C 14.319 333.650,115.158 412.268,225.409 398.225 C 334.584 384.320,412.221 284.063,398.357 174.888 C 386.437 81.020,312.255 9.690,217.107 0.606 C 213.182 0.231,193.095 -0.089,189.057 0.158 M281.258 77.743 C 292.230 78.892,295.289 83.259,297.835 101.408 C 303.254 140.043,300.296 152.056,280.381 172.295 L 274.843 177.924 259.245 189.673 C 247.246 198.712,229.720 212.040,226.765 214.374 C 226.589 214.513,225.564 214.070,223.997 213.179 C 215.108 208.123,206.299 204.443,199.444 202.921 C 196.704 202.313,193.200 201.815,193.459 202.070 C 193.528 202.138,196.093 203.562,199.159 205.234 C 209.305 210.767,223.145 219.575,223.145 220.499 C 223.145 221.150,209.070 245.008,205.704 250.063 C 191.156 271.910,178.359 278.493,150.445 278.490 C 144.093 278.490,128.942 277.705,128.596 277.359 C 128.462 277.225,134.296 266.295,138.935 257.987 C 148.081 241.606,159.642 222.445,160.286 222.596 C 160.475 222.641,166.734 224.762,174.196 227.310 C 181.658 229.858,187.798 231.908,187.841 231.865 C 187.885 231.822,182.685 229.826,176.287 227.430 C 160.422 221.489,160.755 221.618,160.755 221.375 C 160.755 220.798,174.030 200.645,181.216 190.314 C 190.337 177.201,200.518 163.618,210.462 151.299 C 210.684 151.023,214.785 152.344,232.447 158.380 C 244.388 162.461,254.197 165.761,254.246 165.712 C 254.294 165.664,244.854 162.077,233.268 157.741 C 221.681 153.406,212.123 149.791,212.028 149.709 C 211.856 149.561,217.907 142.181,220.113 139.847 L 221.258 138.636 233.316 142.774 C 239.948 145.050,245.409 146.876,245.452 146.833 C 245.495 146.790,240.295 144.798,233.897 142.405 C 227.499 140.012,222.179 137.977,222.075 137.882 C 221.743 137.580,229.246 129.308,229.853 129.308 C 230.024 129.308,242.081 133.377,256.648 138.350 C 271.214 143.323,283.162 147.362,283.198 147.326 C 283.235 147.290,271.549 142.867,257.230 137.498 C 242.911 132.129,231.195 127.627,231.195 127.492 C 231.195 127.212,246.156 112.192,249.937 108.676 C 252.825 105.991,251.062 107.379,245.841 111.900 C 197.132 154.085,138.321 242.842,111.561 314.555 C 108.185 323.603,98.757 325.318,99.731 316.708 C 100.864 306.693,117.995 271.964,137.812 239.506 C 173.001 181.871,213.781 131.557,241.928 111.048 C 246.357 107.822,246.206 107.795,241.509 110.974 C 236.490 114.372,228.929 120.524,224.594 124.739 C 222.800 126.482,223.230 127.115,219.973 117.945 C 218.466 113.702,217.204 110.259,217.169 110.295 C 217.133 110.330,218.060 114.248,219.229 119.002 L 221.354 127.645 217.033 132.062 C 214.657 134.491,212.606 136.478,212.475 136.478 C 212.345 136.478,210.821 133.283,209.089 129.378 C 207.357 125.473,205.907 122.311,205.866 122.352 C 205.825 122.393,207.015 125.928,208.510 130.207 L 211.229 137.987 210.206 139.143 C 209.643 139.779,207.314 142.390,205.031 144.946 C 198.254 152.534,190.114 162.311,184.277 169.874 C 183.031 171.488,181.949 172.813,181.871 172.819 C 181.794 172.825,179.538 167.284,176.859 160.505 C 174.179 153.727,171.949 148.219,171.902 148.266 C 171.854 148.313,173.805 154.058,176.237 161.031 C 178.668 168.005,180.667 173.881,180.679 174.088 C 180.691 174.296,178.406 177.522,175.603 181.258 C 170.366 188.236,163.623 197.603,159.623 203.459 C 158.377 205.281,157.260 206.744,157.139 206.709 C 157.018 206.675,155.328 202.662,153.382 197.793 C 151.437 192.923,149.807 188.977,149.761 189.023 C 149.714 189.070,151.150 193.337,152.951 198.506 C 154.753 203.675,156.226 207.991,156.226 208.097 C 156.226 208.204,153.808 211.944,150.851 216.409 C 139.508 233.542,129.166 250.473,120.920 265.409 C 116.326 273.728,116.754 273.445,116.742 268.176 C 116.692 245.322,119.526 220.216,124.803 196.752 C 125.889 191.925,125.943 191.772,126.144 192.993 C 127.615 201.939,128.687 205.795,130.994 210.440 C 132.113 212.696,132.783 213.710,132.487 212.704 C 129.547 202.687,128.847 192.125,130.785 187.008 C 150.040 136.155,197.189 93.615,249.829 79.600 L 254.214 78.433 263.270 77.992 C 274.120 77.465,278.077 77.410,281.258 77.743 " stroke="none" fill="#c3e3e3" fill-rule="evenodd"></path><path id="path2" d="M274.277 77.658 C 274.519 77.721,274.915 77.721,275.157 77.658 C 275.399 77.594,275.201 77.543,274.717 77.543 C 274.233 77.543,274.035 77.594,274.277 77.658 M277.296 77.658 C 277.538 77.721,277.934 77.721,278.176 77.658 C 278.418 77.594,278.220 77.543,277.736 77.543 C 277.252 77.543,277.053 77.594,277.296 77.658 M231.698 124.906 C 230.667 125.943,229.881 126.792,229.950 126.792 C 230.019 126.792,230.919 125.943,231.950 124.906 C 232.980 123.868,233.767 123.019,233.698 123.019 C 233.629 123.019,232.729 123.868,231.698 124.906 M116.824 268.050 C 116.824 269.572,116.866 270.163,116.916 269.362 C 116.966 268.561,116.965 267.316,116.915 266.595 C 116.864 265.873,116.823 266.528,116.824 268.050 M146.604 278.417 C 146.915 278.476,147.425 278.476,147.736 278.417 C 148.047 278.357,147.792 278.308,147.170 278.308 C 146.547 278.308,146.292 278.357,146.604 278.417 M153.270 278.412 C 153.513 278.476,153.909 278.476,154.151 278.412 C 154.393 278.349,154.195 278.297,153.711 278.297 C 153.226 278.297,153.028 278.349,153.270 278.412 " stroke="none" fill="#7b8f8d" fill-rule="evenodd"></path><path id="path3" d="M239.997 118.428 L 235.849 122.642 240.063 118.493 C 242.381 116.212,244.277 114.316,244.277 114.280 C 244.277 114.100,243.851 114.513,239.997 118.428 M235.458 121.195 L 234.591 122.138 235.535 121.271 C 236.413 120.464,236.594 120.252,236.402 120.252 C 236.360 120.252,235.935 120.676,235.458 121.195 M299.933 124.277 C 299.933 124.761,299.984 124.959,300.048 124.717 C 300.111 124.475,300.111 124.079,300.048 123.836 C 299.984 123.594,299.933 123.792,299.933 124.277 M170.686 126.352 L 168.679 128.428 170.755 126.421 C 172.682 124.557,172.945 124.277,172.761 124.277 C 172.724 124.277,171.790 125.211,170.686 126.352 M220.749 129.623 L 218.742 131.698 220.818 129.691 C 222.745 127.828,223.008 127.547,222.824 127.547 C 222.786 127.547,221.852 128.481,220.749 129.623 M228.163 128.491 L 227.296 129.434 228.239 128.567 C 229.117 127.760,229.298 127.547,229.106 127.547 C 229.064 127.547,228.639 127.972,228.163 128.491 M217.732 131.132 L 214.465 134.465 217.799 131.199 C 219.632 129.402,221.132 127.902,221.132 127.865 C 221.132 127.685,220.767 128.036,217.732 131.132 M253.836 149.831 C 253.836 150.000,255.143 150.475,255.268 150.351 C 255.325 150.294,255.026 150.126,254.604 149.979 C 254.182 149.832,253.836 149.765,253.836 149.831 M290.314 149.844 C 290.314 150.015,292.110 150.741,292.231 150.620 C 292.287 150.564,291.878 150.340,291.323 150.122 C 290.769 149.904,290.314 149.779,290.314 149.844 M281.623 170.881 L 280.629 171.950 281.698 170.955 C 282.692 170.030,282.883 169.811,282.693 169.811 C 282.651 169.811,282.170 170.292,281.623 170.881 M277.854 174.654 L 276.352 176.226 277.925 174.725 C 278.789 173.899,279.497 173.191,279.497 173.153 C 279.497 172.967,279.249 173.194,277.854 174.654 M129.623 193.333 C 129.626 193.887,129.678 194.084,129.738 193.771 C 129.798 193.458,129.796 193.005,129.733 192.764 C 129.670 192.524,129.620 192.780,129.623 193.333 M196.226 234.862 C 196.226 235.032,197.533 235.507,197.658 235.382 C 197.715 235.325,197.416 235.158,196.994 235.011 C 196.572 234.864,196.226 234.797,196.226 234.862 M117.045 257.233 C 117.047 257.786,117.099 257.983,117.159 257.670 C 117.219 257.357,117.217 256.904,117.154 256.664 C 117.091 256.423,117.042 256.679,117.045 257.233 " stroke="none" fill="#5d6c6c" fill-rule="evenodd"></path><path id="path4" d="M275.786 77.658 C 276.028 77.721,276.425 77.721,276.667 77.658 C 276.909 77.594,276.711 77.543,276.226 77.543 C 275.742 77.543,275.544 77.594,275.786 77.658 M149.380 278.425 C 150.111 278.476,151.243 278.475,151.895 278.424 C 152.548 278.372,151.950 278.330,150.566 278.331 C 149.182 278.332,148.648 278.374,149.380 278.425 " stroke="none" fill="#647474" fill-rule="evenodd"></path><path id="path5" d="" stroke="none" fill="#64746c" fill-rule="evenodd"></path><path id="path6" d="M194.575 263.962 L 193.836 264.780 194.654 264.041 C 195.104 263.635,195.472 263.267,195.472 263.223 C 195.472 263.029,195.264 263.200,194.575 263.962 " stroke="none" fill="#94aeac" fill-rule="evenodd"></path><path id="path7" d="M116.793 264.528 C 116.796 265.082,116.847 265.279,116.907 264.966 C 116.968 264.653,116.965 264.200,116.902 263.959 C 116.839 263.719,116.790 263.975,116.793 264.528 M116.788 271.447 C 116.788 271.931,116.840 272.129,116.903 271.887 C 116.966 271.645,116.966 271.248,116.903 271.006 C 116.840 270.764,116.788 270.962,116.788 271.447 " stroke="none" fill="#90aca4" fill-rule="evenodd"></path><path id="path8" d="M213.192 135.912 L 212.453 136.730 213.270 135.991 C 213.720 135.584,214.088 135.216,214.088 135.173 C 214.088 134.979,213.880 135.150,213.192 135.912 M116.798 262.138 C 116.798 262.761,116.847 263.016,116.907 262.704 C 116.967 262.393,116.967 261.884,116.907 261.572 C 116.847 261.261,116.798 261.516,116.798 262.138 " stroke="none" fill="#9db8b6" fill-rule="evenodd"></path></g></svg>