<?xml version="1.0" encoding="utf-8"?>
<svg viewBox="107.003 40.706 200.137 244.393" xmlns="http://www.w3.org/2000/svg">
  <path id="path0" d="M 270.148 41.054 C 261.848 41.421 261.331 41.497 254.802 43.318 C 203.11 57.731 156.137 100.82 137.819 150.628 L 136.694 153.688 L 136.941 157.779 C 137.311 163.908 138.499 171.34 139.822 175.796 C 140.443 177.886 139.665 176.877 137.971 173.396 C 135.828 168.992 134.695 165.229 133.593 158.863 L 133.015 155.519 L 131.717 161.423 C 128.113 177.818 125.895 193.399 124.734 210.471 C 124.357 216.02 123.917 235.121 124.172 234.874 C 124.243 234.805 125.795 232.049 127.621 228.751 C 136.232 213.196 145.876 197.393 157.439 179.895 L 163.264 171.081 L 158.9 158.54 C 156.5 151.642 154.573 145.962 154.618 145.918 C 154.662 145.873 156.839 151.153 159.455 157.651 C 162.071 164.149 164.273 169.461 164.349 169.456 C 164.425 169.451 165.223 168.353 166.123 167.017 C 169.212 162.427 177.624 150.715 182.698 143.941 L 187.778 137.16 L 181.967 120.455 C 178.771 111.267 176.192 103.714 176.236 103.67 C 176.28 103.627 179.012 110.403 182.307 118.729 C 185.602 127.055 188.46 134.251 188.659 134.719 L 189.02 135.571 L 191.345 132.593 C 198.057 123.996 206.994 113.308 213.207 106.447 C 215.191 104.257 217.119 102.105 217.491 101.666 L 218.167 100.868 L 214.896 91.493 C 213.097 86.336 211.669 82.074 211.721 82.021 C 211.774 81.969 213.561 85.879 215.692 90.712 L 219.567 99.498 L 223.851 95.076 C 226.207 92.644 228.168 90.571 228.208 90.47 C 228.266 90.325 223.89 72.444 223.314 70.471 C 223.233 70.194 223.24 70.037 223.33 70.121 C 223.42 70.204 224.969 74.391 226.773 79.424 C 228.577 84.456 230.096 88.616 230.148 88.668 C 230.2 88.72 231.749 87.4 233.591 85.735 C 242.148 78.001 250.29 72.049 256.731 68.82 C 258.898 67.734 258.561 68.002 255.224 70.018 C 227.807 86.579 184.179 138.872 146.104 200.809 C 124.956 235.211 107.003 271.835 107.003 280.574 C 107.003 288.031 115.513 285.761 118.544 277.497 C 145.793 203.193 210.127 108.314 260.211 68.568 C 263.054 66.311 263.899 65.797 261.974 67.493 C 255.386 73.298 238.576 89.742 238.576 90.381 C 238.576 90.5 252.277 95.736 269.024 102.015 C 285.77 108.295 299.438 113.467 299.396 113.508 C 299.354 113.55 285.25 108.781 268.052 102.91 L 236.784 92.236 L 235.452 93.681 C 231.055 98.447 229.25 100.629 229.564 100.797 C 229.747 100.894 237.23 103.72 246.193 107.078 C 255.156 110.435 262.449 113.222 262.399 113.272 C 262.35 113.322 254.692 110.759 245.382 107.577 C 236.072 104.395 228.383 101.797 228.295 101.804 C 228.154 101.814 221.042 110.183 219.734 111.877 L 219.232 112.528 L 245.63 122.425 C 260.15 127.868 271.989 132.361 271.941 132.41 C 271.892 132.459 259.713 128.355 244.877 123.289 C 230.041 118.224 217.876 114.117 217.844 114.162 C 217.812 114.208 216.823 115.433 215.646 116.886 C 207.087 127.451 195.073 143.683 185.531 157.573 C 179.417 166.472 168.135 183.758 168.135 184.226 C 168.135 184.341 176.403 187.535 186.508 191.324 C 196.613 195.112 204.841 198.252 204.792 198.301 C 204.722 198.371 169.305 186.367 167.598 185.696 C 166.394 185.222 135.106 239.49 136.195 240.163 C 137.575 241.016 165.09 241.344 171.133 240.58 C 192.417 237.887 202.496 230.141 217.905 204.631 C 220.437 200.44 229.676 184.343 229.93 183.68 C 230.347 182.594 216.013 173.456 203.481 166.82 C 199.402 164.66 199.345 164.603 201.469 164.809 C 209.149 165.556 219.037 169.183 229.871 175.228 C 231.898 176.36 233.684 177.207 233.839 177.111 C 233.994 177.015 237.586 174.274 241.82 171.019 C 246.054 167.764 256.594 159.778 265.242 153.271 C 281.809 140.806 283.303 139.549 290.241 132.235 C 306.125 115.492 309.39 103.016 305.843 72.61 C 302.137 40.831 300.852 39.695 270.148 41.054" stroke="none" fill-rule="evenodd" style="fill: rgb(255, 255, 255);"/>
</svg>