<?xml version="1.0" encoding="utf-8"?>
<!-- Generator: Adobe Illustrator 23.0.0, SVG Export Plug-In . SVG Version: 6.00 Build 0)  -->
<svg version="1.1" id="Layer_1" xmlns="http://www.w3.org/2000/svg" xmlns:xlink="http://www.w3.org/1999/xlink" x="0px" y="0px"
	 viewBox="0 0 6521.8 1280" style="enable-background:new 0 0 6521.8 1280;" xml:space="preserve">
<style type="text/css">
	.st0{enable-background:new    ;}
	.st1{fill:#24126A;}
	.st2{fill:#EA0617;}
	.st3{fill:#FFFFFF;stroke:url(#SVGID_1_);stroke-width:20;stroke-miterlimit:10;}
	.st4{fill:#E0AE0E;}
	.st5{fill:#FFFFFF;}
</style>
<g class="st0">
	<path class="st1" d="M1918.5,755.1c0,39-10,74-30.1,105c-20.1,31.1-49.4,55.4-88.1,72.9s-84.5,26.4-137.5,26.4
		c-63.6,0-116-12-157.3-36c-29.3-17.3-53.1-40.4-71.4-69.2c-18.3-28.9-27.5-56.9-27.5-84.2c0-15.8,5.5-29.4,16.5-40.6
		c11-11.3,25-16.9,42-16.9c13.8,0,25.4,4.4,34.9,13.2s17.6,21.8,24.4,39.1c8.2,20.5,17.1,37.6,26.6,51.4
		c9.5,13.8,22.9,25.1,40.2,34.1c17.3,8.9,40,13.4,68.1,13.4c38.7,0,70.1-9,94.3-27s36.3-40.5,36.3-67.5c0-21.4-6.5-38.7-19.6-52.1
		c-13-13.3-29.9-23.5-50.5-30.5s-48.3-14.5-82.8-22.4c-46.3-10.8-85-23.5-116.2-38s-56-34.3-74.3-59.3s-27.5-56.2-27.5-93.4
		c0-35.4,9.7-66.9,29-94.5c19.3-27.5,47.3-48.7,83.9-63.5s79.7-22.2,129.2-22.2c39.6,0,73.8,4.9,102.6,14.7
		c28.9,9.8,52.8,22.9,71.9,39.1c19,16.3,33,33.3,41.7,51.2c8.8,17.9,13.2,35.3,13.2,52.3c0,15.5-5.5,29.5-16.5,42
		s-24.7,18.7-41.1,18.7c-14.9,0-26.3-3.7-34.1-11.2c-7.8-7.5-16.2-19.7-25.3-36.7c-11.7-24.3-25.8-43.3-42.2-56.9
		c-16.4-13.6-42.8-20.4-79.1-20.4c-33.7,0-60.9,7.4-81.5,22.2c-20.7,14.8-31,32.6-31,53.4c0,12.9,3.5,24,10.5,33.4
		s16.7,17.4,29,24.2c12.3,6.7,24.8,12,37.4,15.8s33.4,9.4,62.4,16.7c36.3,8.5,69.2,17.9,98.7,28.1c29.4,10.3,54.5,22.7,75.1,37.4
		c20.7,14.7,36.8,33.2,48.3,55.6C1912.7,695.1,1918.5,722.5,1918.5,755.1z"/>
	<path class="st1" d="M2419.9,724.3v159.5c0,25.2-5.7,44.1-17.1,56.7c-11.4,12.6-26.5,18.9-45.3,18.9c-18.2,0-32.9-6.3-44.2-18.9
		c-11.3-12.6-16.9-31.5-16.9-56.7V692.7c0-30.2-1-53.6-3.1-70.3s-7.6-30.4-16.7-41.1c-9.1-10.7-23.4-16-43.1-16
		c-39.3,0-65.1,13.5-77.6,40.4c-12.5,27-18.7,65.6-18.7,116v162.2c0,24.9-5.6,43.7-16.9,56.5c-11.3,12.7-26.1,19.1-44.6,19.1
		c-18.2,0-33-6.4-44.6-19.1c-11.6-12.7-17.4-31.6-17.4-56.5V540.6c0-22.6,5.2-39.7,15.6-51.4c10.4-11.7,24.1-17.6,41.1-17.6
		c16.4,0,30.1,5.5,41.1,16.5s16.5,26.1,16.5,45.5V545c20.8-24.9,43.1-43.2,66.8-54.9c23.7-11.7,50.1-17.6,79.1-17.6
		c30.2,0,56.1,6,77.8,18s39.6,30.2,53.6,54.5c20.2-24.6,41.9-42.8,65-54.7c23.1-11.9,48.8-17.8,76.9-17.8c32.8,0,61.1,6.4,84.8,19.3
		s41.5,31.4,53.2,55.4c10.3,21.7,15.4,55.8,15.4,102.4v234.2c0,25.2-5.7,44.1-17.1,56.7c-11.4,12.6-26.5,18.9-45.3,18.9
		c-18.2,0-33-6.4-44.6-19.1c-11.6-12.7-17.4-31.6-17.4-56.5V682.1c0-25.8-1.1-46.4-3.3-62c-2.2-15.5-8.1-28.6-17.8-39.1
		s-24.3-15.8-43.9-15.8c-15.8,0-30.8,4.7-45,14.1c-14.2,9.4-25.3,22-33.2,37.8C2424.3,637.3,2419.9,673,2419.9,724.3z"/>
	<path class="st1" d="M3120.4,891.7c-29,22.6-57.1,39.5-84.2,50.8c-27.1,11.3-57.5,16.9-91.2,16.9c-30.8,0-57.8-6.1-81.1-18.2
		c-23.3-12.2-41.2-28.6-53.8-49.4c-12.6-20.8-18.9-43.4-18.9-67.7c0-32.8,10.4-60.8,31.2-83.9c20.8-23.1,49.4-38.7,85.7-46.6
		c7.6-1.8,26.5-5.7,56.7-11.9s56-11.8,77.6-16.9c21.5-5.1,44.9-11.4,70.1-18.7c-1.5-31.6-7.8-54.9-19.1-69.7s-34.6-22.2-70.1-22.2
		c-30.5,0-53.4,4.3-68.8,12.7c-15.4,8.5-28.6,21.2-39.6,38.2s-18.8,28.2-23.3,33.6c-4.5,5.4-14.3,8.1-29.2,8.1
		c-13.5,0-25.1-4.3-34.9-13c-9.8-8.6-14.7-19.7-14.7-33.2c0-21.1,7.5-41.6,22.4-61.5s38.2-36.3,69.9-49.2
		c31.6-12.9,71-19.3,118.2-19.3c52.7,0,94.2,6.2,124.4,18.7s51.5,32.2,63.9,59.1c12.4,27,18.7,62.7,18.7,107.2
		c0,28.1-0.1,52-0.2,71.6c-0.2,19.6-0.4,41.5-0.7,65.5c0,22.6,3.7,46.1,11.2,70.5c7.5,24.5,11.2,40.2,11.2,47.2
		c0,12.3-5.8,23.5-17.4,33.6c-11.6,10.1-24.7,15.2-39.3,15.2c-12.3,0-24.5-5.8-36.5-17.4C3146.6,930.5,3133.9,913.7,3120.4,891.7z
		 M3112.5,718.2c-17.6,6.4-43.1,13.3-76.7,20.4c-33.5,7.2-56.8,12.5-69.7,15.8c-12.9,3.4-25.2,10-36.9,19.8s-17.6,23.5-17.6,41.1
		c0,18.2,6.9,33.6,20.7,46.4c13.8,12.7,31.8,19.1,54.1,19.1c23.7,0,45.6-5.2,65.7-15.6c20.1-10.4,34.8-23.8,44.2-40.2
		c10.8-18.2,16.3-48,16.3-89.6v-17.2H3112.5z"/>
	<path class="st1" d="M3471.1,786.3v100.2c0,24.3-5.7,42.6-17.1,54.7c-11.4,12.2-25.9,18.2-43.5,18.2c-17.3,0-31.5-6.2-42.6-18.5
		s-16.7-30.5-16.7-54.5v-334c0-53.9,19.5-80.9,58.4-80.9c19.9,0,34.3,6.3,43.1,18.9s13.6,31.2,14.5,55.8
		c14.4-24.6,29.1-43.2,44.2-55.8c15.1-12.6,35.2-18.9,60.4-18.9s49.7,6.3,73.4,18.9s35.6,29.3,35.6,50.1c0,14.7-5.1,26.7-15.2,36.3
		c-10.1,9.5-21,14.3-32.7,14.3c-4.4,0-15-2.7-31.9-8.1c-16.9-5.4-31.7-8.1-44.6-8.1c-17.6,0-31.9,4.6-43.1,13.8
		c-11.1,9.2-19.8,22.9-25.9,41.1c-6.2,18.2-10.4,39.8-12.7,64.8C3472.2,719.7,3471.1,750.2,3471.1,786.3z"/>
	<path class="st1" d="M3763.7,482.2h13.2v-72.1c0-19.3,0.5-34.5,1.5-45.5s3.9-20.4,8.6-28.3c4.7-8.2,11.4-14.9,20.2-20
		s18.6-7.7,29.4-7.7c15.2,0,29,5.7,41.3,17.1c8.2,7.6,13.4,16.9,15.6,27.9s3.3,26.6,3.3,46.8v81.7h43.9c17,0,30,4,38.9,12.1
		s13.4,18.4,13.4,31c0,16.1-6.4,27.4-19.1,33.8c-12.7,6.4-31,9.7-54.7,9.7h-22.4v220.6c0,18.8,0.7,33.2,2,43.3s4.8,18.3,10.5,24.6
		s15,9.4,27.9,9.4c7,0,16.5-1.2,28.6-3.7c12-2.5,21.4-3.7,28.1-3.7c9.7,0,18.4,3.9,26.1,11.6c7.8,7.8,11.6,17.4,11.6,28.8
		c0,19.3-10.5,34.1-31.6,44.4s-51.4,15.4-91,15.4c-37.5,0-65.9-6.3-85.3-18.9c-19.3-12.6-32-30-38-52.3s-9-52-9-89.2V568.7h-15.8
		c-17.3,0-30.5-4.1-39.6-12.3s-13.6-18.6-13.6-31.2c0-12.6,4.8-22.9,14.3-31C3731.7,486.2,3745.6,482.2,3763.7,482.2z"/>
	<path class="st1" d="M4186.5,974.4l11-26.8l-147.7-371.8c-9.1-21.4-13.6-36.9-13.6-46.6c0-10.3,2.6-19.8,7.9-28.6
		s12.5-15.8,21.8-21.1s18.8-7.9,28.8-7.9c17.3,0,30.3,5.5,39.1,16.5s16.5,26.7,23.3,47.2l101.5,295.3l96.2-274.7
		c7.6-22.3,14.5-39.7,20.7-52.3c6.2-12.6,12.7-21.1,19.6-25.5s16.6-6.6,29.2-6.6c9.1,0,17.8,2.4,26.1,7.3s14.8,11.4,19.3,19.6
		s6.8,16.9,6.8,25.9c-1.2,5.6-3.1,13.5-5.7,23.7c-2.6,10.3-5.9,20.7-9.7,31.2l-156.4,409.6c-13.5,36-26.7,64.3-39.6,84.8
		s-30,36.3-51.2,47.2c-21.2,11-49.9,16.5-85.9,16.5c-35.2,0-61.5-3.8-79.1-11.4s-26.4-21.5-26.4-41.7c0-13.8,4.2-24.4,12.5-31.9
		s20.7-11.2,37.1-11.2c6.4,0,12.7,0.9,18.9,2.6c7.6,1.8,14.2,2.6,19.8,2.6c13.8,0,24.6-2.1,32.5-6.2s15-11.2,21.3-21.3
		C4171,1008.9,4178.3,994,4186.5,974.4z"/>
	<path class="st1" d="M5046.9,697.5h-119.5v182.4c0,26.1-6.2,45.9-18.5,59.3c-12.3,13.5-27.8,20.2-46.6,20.2
		c-19.6,0-35.5-6.7-47.5-20s-18-32.9-18-58.7V384.2c0-28.7,6.6-49.2,19.8-61.5s34.1-18.5,62.8-18.5h167.4
		c49.5,0,87.6,3.8,114.3,11.4c26.4,7.3,49.1,19.5,68.3,36.5c19.2,17,33.8,37.8,43.7,62.4c10,24.6,14.9,52.3,14.9,83.1
		c0,65.6-20.2,115.4-60.6,149.2C5187.1,680.6,5126.9,697.5,5046.9,697.5z M5015.3,402.2h-87.9v196.9h87.9c30.8,0,56.5-3.2,77.1-9.7
		c20.7-6.4,36.4-17,47.2-31.6c10.8-14.6,16.3-33.8,16.3-57.6c0-28.4-8.3-51.6-25-69.4C5112.1,411.7,5073.6,402.2,5015.3,402.2z"/>
	<path class="st1" d="M5657.8,891.7c-29,22.6-57.1,39.5-84.2,50.8s-57.5,16.9-91.2,16.9c-30.8,0-57.8-6.1-81.1-18.2
		c-23.3-12.2-41.2-28.6-53.8-49.4c-12.6-20.8-18.9-43.4-18.9-67.7c0-32.8,10.4-60.8,31.2-83.9c20.8-23.1,49.4-38.7,85.7-46.6
		c7.6-1.8,26.5-5.7,56.7-11.9s56-11.8,77.6-16.9c21.5-5.1,44.9-11.4,70.1-18.7c-1.5-31.6-7.8-54.9-19.1-69.7
		c-11.3-14.8-34.6-22.2-70.1-22.2c-30.5,0-53.4,4.3-68.8,12.7c-15.4,8.5-28.6,21.2-39.6,38.2s-18.8,28.2-23.3,33.6
		c-4.5,5.4-14.3,8.1-29.2,8.1c-13.5,0-25.1-4.3-34.9-13c-9.8-8.6-14.7-19.7-14.7-33.2c0-21.1,7.5-41.6,22.4-61.5
		s38.2-36.3,69.9-49.2c31.6-12.9,71-19.3,118.2-19.3c52.7,0,94.2,6.2,124.4,18.7c30.2,12.5,51.5,32.2,63.9,59.1
		c12.4,27,18.7,62.7,18.7,107.2c0,28.1-0.1,52-0.2,71.6c-0.2,19.6-0.4,41.5-0.7,65.5c0,22.6,3.7,46.1,11.2,70.5
		c7.5,24.5,11.2,40.2,11.2,47.2c0,12.3-5.8,23.5-17.4,33.6s-24.7,15.2-39.3,15.2c-12.3,0-24.5-5.8-36.5-17.4
		C5684,930.5,5671.3,913.7,5657.8,891.7z M5649.9,718.2c-17.6,6.4-43.1,13.3-76.7,20.4c-33.5,7.2-56.8,12.5-69.7,15.8
		c-12.9,3.4-25.2,10-36.9,19.8c-11.7,9.8-17.6,23.5-17.6,41.1c0,18.2,6.9,33.6,20.7,46.4c13.8,12.7,31.8,19.1,54.1,19.1
		c23.7,0,45.6-5.2,65.7-15.6c20.1-10.4,34.8-23.8,44.2-40.2c10.8-18.2,16.3-48,16.3-89.6v-17.2H5649.9z"/>
	<path class="st1" d="M5988.3,974.4l11-26.8l-147.7-371.8c-9.1-21.4-13.6-36.9-13.6-46.6c0-10.3,2.6-19.8,7.9-28.6
		s12.5-15.8,21.8-21.1s18.8-7.9,28.8-7.9c17.3,0,30.3,5.5,39.1,16.5s16.5,26.7,23.3,47.2l101.5,295.3l96.2-274.7
		c7.6-22.3,14.5-39.7,20.7-52.3c6.2-12.6,12.7-21.1,19.6-25.5s16.6-6.6,29.2-6.6c9.1,0,17.8,2.4,26.1,7.3s14.8,11.4,19.3,19.6
		s6.8,16.9,6.8,25.9c-1.2,5.6-3.1,13.5-5.7,23.7c-2.6,10.3-5.9,20.7-9.7,31.2l-156.4,409.6c-13.5,36-26.7,64.3-39.6,84.8
		s-30,36.3-51.2,47.2c-21.2,11-49.9,16.5-85.9,16.5c-35.2,0-61.5-3.8-79.1-11.4s-26.4-21.5-26.4-41.7c0-13.8,4.2-24.4,12.5-31.9
		s20.7-11.2,37.1-11.2c6.4,0,12.7,0.9,18.9,2.6c7.6,1.8,14.2,2.6,19.8,2.6c13.8,0,24.6-2.1,32.5-6.2s15-11.2,21.3-21.3
		C5972.8,1008.9,5980,994,5988.3,974.4z"/>
</g>
<g>
	<circle class="st2" cx="699.6" cy="640" r="610.4"/>
	<radialGradient id="SVGID_1_" cx="703.905" cy="639" r="526.1" gradientUnits="userSpaceOnUse">
		<stop  offset="0" style="stop-color:#FFFFFF;stop-opacity:0.2"/>
		<stop  offset="1" style="stop-color:#000000"/>
	</radialGradient>
	<circle class="st3" cx="703.9" cy="639" r="516.1"/>
	<path class="st4" d="M1132.8,643.2c0,236.7-191.9,428.6-428.6,428.6S275.7,879.9,275.7,643.2s191.9-428.6,428.6-428.6
		c90.3,0,183.6,41.2,183.6,41.2c-32.8,102.8,41.4,257.1,204.3,212.8C1117.8,480.1,1132.8,564.1,1132.8,643.2z"/>
	<path class="st5" d="M1059.2,652.2c0,194.5-157.7,352.1-352.1,352.1S354.9,846.7,354.9,652.2S512.6,300.1,707,300.1
		c11.8,0,100.7-1.2,98,13.8c-26.3,145.7,124.1,250.5,237.2,234.2C1042.3,548.1,1059.2,605.4,1059.2,652.2z"/>
	<g>
		<path class="st4" d="M910.6,763.6c0,27.7-8.9,52.5-26.6,74.6c-17.8,22.1-43.8,39.3-78,51.8s-74.8,18.7-121.8,18.7
			c-56.3,0-102.7-8.5-139.3-25.6c-25.9-12.3-47-28.7-63.2-49.2s-24.3-40.4-24.3-59.8c0-11.2,4.9-20.9,14.6-28.9s22.1-12,37.2-12
			c12.2,0,22.5,3.1,30.9,9.4c8.4,6.2,15.6,15.5,21.6,27.8c7.3,14.6,15.1,26.7,23.5,36.5c8.4,9.8,20.3,17.8,35.6,24.2
			c15.3,6.3,35.4,9.5,60.3,9.5c34.2,0,62.1-6.4,83.4-19.2c21.4-12.8,32.1-28.8,32.1-47.9c0-15.2-5.8-27.5-17.3-37
			s-26.5-16.7-44.7-21.7c-18.3-5-42.7-10.3-73.3-15.9c-41-7.7-75.3-16.7-102.9-27c-27.6-10.3-49.5-24.3-65.7-42.1
			c-16.2-17.8-24.3-39.9-24.3-66.3c0-25.2,8.6-47.5,25.7-67.1c17.1-19.6,41.9-34.6,74.3-45.1s70.5-15.8,114.4-15.8
			c35,0,65.3,3.5,90.8,10.5s46.7,16.2,63.6,27.8c16.9,11.5,29.2,23.7,37,36.4c7.8,12.7,11.7,25.1,11.7,37.1c0,11-4.9,21-14.6,29.8
			c-9.7,8.8-21.9,13.3-36.4,13.3c-13.2,0-23.3-2.7-30.2-8s-14.3-14-22.4-26.1c-10.4-17.3-22.8-30.7-37.3-40.4
			c-14.5-9.7-37.9-14.5-70-14.5c-29.8,0-53.9,5.3-72.2,15.8c-18.3,10.5-27.4,23.2-27.4,37.9c0,9.2,3.1,17.1,9.3,23.7
			c6.2,6.7,14.8,12.4,25.7,17.2s21.9,8.5,33.1,11.2c11.1,2.7,29.6,6.7,55.2,11.9c32.2,6,61.3,12.7,87.3,20
			c26.1,7.3,48.2,16.1,66.5,26.5s32.5,23.6,42.8,39.5C905.5,721,910.6,740.5,910.6,763.6z"/>
	</g>
</g>
</svg>
