<?xml version="1.0" encoding="utf-8"?>
<!-- Generator: Adobe Illustrator 23.0.0, SVG Export Plug-In . SVG Version: 6.00 Build 0)  -->
<svg version="1.1" id="Layer_1" xmlns="http://www.w3.org/2000/svg" xmlns:xlink="http://www.w3.org/1999/xlink" x="0px" y="0px"
	 viewBox="0 0 1280 1280" style="enable-background:new 0 0 1280 1280;" xml:space="preserve">
<style type="text/css">
	.st0{fill:#EA0617;}
	.st1{fill:#FFFFFF;stroke:url(#SVGID_1_);stroke-width:20;stroke-miterlimit:10;}
	.st2{fill:#E0AE0E;}
	.st3{fill:#FFFFFF;}
</style>
<circle class="st0" cx="636.8" cy="636.8" r="610.4"/>
<radialGradient id="SVGID_1_" cx="641.1" cy="644.2001" r="526.1" gradientTransform="matrix(1 0 0 -1 0 1280)" gradientUnits="userSpaceOnUse">
	<stop  offset="0" style="stop-color:#FFFFFF;stop-opacity:0.2"/>
	<stop  offset="1" style="stop-color:#000000"/>
</radialGradient>
<circle class="st1" cx="641.1" cy="635.8" r="516.1"/>
<path class="st2" d="M1070,640c0,236.7-191.9,428.6-428.6,428.6S212.9,876.7,212.9,640s191.9-428.6,428.6-428.6
	c90.3,0,183.6,41.2,183.6,41.2c-32.8,102.8,41.4,257.1,204.3,212.8C1055,476.9,1070,560.9,1070,640z"/>
<path class="st3" d="M996.4,649c0,194.5-157.7,352.1-352.1,352.1S292.1,843.5,292.1,649s157.7-352.1,352.1-352.1
	c11.8,0,100.7-1.2,98,13.8c-26.3,145.7,124.1,250.5,237.2,234.2C979.5,544.9,996.4,602.2,996.4,649z"/>
<g>
	<path class="st2" d="M847.8,760.4c0,27.7-8.9,52.5-26.6,74.6c-17.8,22.1-43.8,39.3-78,51.8s-74.8,18.7-121.8,18.7
		c-56.3,0-102.7-8.5-139.3-25.6c-25.9-12.3-47-28.7-63.2-49.2s-24.3-40.4-24.3-59.8c0-11.2,4.9-20.9,14.6-28.9s22.1-12,37.2-12
		c12.2,0,22.5,3.1,30.9,9.4c8.4,6.2,15.6,15.5,21.6,27.8c7.3,14.6,15.1,26.7,23.5,36.5c8.4,9.8,20.3,17.8,35.6,24.2
		c15.3,6.3,35.4,9.5,60.3,9.5c34.2,0,62.1-6.4,83.4-19.2c21.4-12.8,32.1-28.8,32.1-47.9c0-15.2-5.8-27.5-17.3-37
		s-26.5-16.7-44.7-21.7c-18.3-5-42.7-10.3-73.3-15.9c-41-7.7-75.3-16.7-102.9-27s-49.5-24.3-65.7-42.1
		c-16.2-17.8-24.3-39.9-24.3-66.3c0-25.2,8.6-47.5,25.7-67.1s41.9-34.6,74.3-45.1s70.5-15.8,114.4-15.8c35,0,65.3,3.5,90.8,10.5
		s46.7,16.2,63.6,27.8c16.9,11.5,29.2,23.7,37,36.4s11.7,25.1,11.7,37.1c0,11-4.9,21-14.6,29.8c-9.7,8.8-21.9,13.3-36.4,13.3
		c-13.2,0-23.3-2.7-30.2-8s-14.3-14-22.4-26.1c-10.4-17.3-22.8-30.7-37.3-40.4s-37.9-14.5-70-14.5c-29.8,0-53.9,5.3-72.2,15.8
		s-27.4,23.2-27.4,37.9c0,9.2,3.1,17.1,9.3,23.7c6.2,6.7,14.8,12.4,25.7,17.2s21.9,8.5,33.1,11.2c11.1,2.7,29.6,6.7,55.2,11.9
		c32.2,6,61.3,12.7,87.3,20c26.1,7.3,48.2,16.1,66.5,26.5s32.5,23.6,42.8,39.5C842.7,717.8,847.8,737.3,847.8,760.4z"/>
</g>
</svg>
