<?xml version="1.0" encoding="utf-8"?>
<!-- Generator: Adobe Illustrator 23.0.0, SVG Export Plug-In . SVG Version: 6.00 Build 0)  -->
<svg version="1.1" id="Layer_1" xmlns="http://www.w3.org/2000/svg" xmlns:xlink="http://www.w3.org/1999/xlink" x="0px" y="0px"
	 viewBox="0 0 26.4 27.7" style="enable-background:new 0 0 26.4 27.7;" xml:space="preserve">
<style type="text/css">
	.st0{fill:#FFFFFF;}
	.st1{fill:#FF0000;}
	.st2{fill:#FBB03B;}
	.st3{fill:none;stroke:#FBB03B;stroke-width:1.75;stroke-miterlimit:10;}
	.st4{display:none;}
	.st5{display:inline;fill:#FF0000;}
</style>
<g>
	<circle class="st0" cx="13" cy="14" r="11"/>
	<path class="st1" d="M13,4c5.5,0,10,4.5,10,10s-4.5,10-10,10S3,19.5,3,14S7.5,4,13,4 M13,2C6.4,2,1,7.4,1,14s5.4,12,12,12
		s12-5.4,12-12S19.6,2,13,2L13,2z"/>
</g>
<g>
	<path class="st2" d="M17.1,16.1c0,0.6-0.1,1.1-0.4,1.5c-0.3,0.4-0.7,0.7-1.3,1c-0.6,0.2-1.2,0.3-2,0.3c-0.8,0-1.4-0.1-2-0.4
		s-1-0.5-1.2-0.9c-0.3-0.4-0.4-0.7-0.4-1.1c0-0.2,0.1-0.4,0.3-0.6c0.2-0.2,0.4-0.3,0.6-0.3c0.2,0,0.4,0.1,0.5,0.2
		c0.1,0.1,0.2,0.3,0.3,0.5c0.2,0.4,0.5,0.7,0.8,0.9s0.7,0.3,1.2,0.3c0.4,0,0.8-0.1,1.1-0.3c0.3-0.2,0.4-0.4,0.4-0.7
		c0-0.4-0.1-0.6-0.4-0.8c-0.3-0.2-0.8-0.3-1.4-0.5c-0.7-0.2-1.3-0.4-1.8-0.6c-0.5-0.2-0.8-0.5-1.1-0.8c-0.3-0.3-0.4-0.7-0.4-1.2
		c0-0.4,0.1-0.8,0.4-1.2c0.3-0.4,0.6-0.7,1.1-0.9c0.5-0.2,1.1-0.3,1.8-0.3c0.6,0,1,0.1,1.5,0.2c0.4,0.1,0.8,0.3,1.1,0.5
		c0.3,0.2,0.5,0.4,0.7,0.6c0.2,0.2,0.2,0.5,0.2,0.7c0,0.2-0.1,0.4-0.2,0.6S16,13,15.7,13c-0.2,0-0.4-0.1-0.6-0.2
		c-0.2-0.1-0.3-0.3-0.5-0.6c-0.2-0.2-0.4-0.4-0.6-0.5s-0.5-0.2-0.9-0.2c-0.4,0-0.7,0.1-1,0.2c-0.3,0.2-0.4,0.4-0.4,0.6
		c0,0.2,0.1,0.4,0.3,0.6c0.2,0.1,0.4,0.3,0.8,0.4c0.3,0.1,0.8,0.2,1.3,0.3c0.7,0.2,1.2,0.4,1.6,0.6c0.4,0.2,0.7,0.5,1,0.8
		C17,15.4,17.1,15.7,17.1,16.1z"/>
</g>
<g>
	<path d="M13,4.5c5.2,0,9.5,4.3,9.5,9.5s-4.3,9.5-9.5,9.5S3.5,19.2,3.5,14S7.8,4.5,13,4.5 M13,4C7.5,4,3,8.5,3,14s4.5,10,10,10
		s10-4.5,10-10S18.5,4,13,4L13,4z"/>
</g>
<path class="st3" d="M20,14c0,4.1-3.1,7.5-7,7.5S6,18.1,6,14s3.1-7.5,7-7.5c1-0.1,2.1,0.3,2.1,0.3c-0.5,2.5,1.6,3.8,3.6,2.9
	C18.7,9.7,20,11.1,20,14z"/>
<g class="st4">
	<path class="st5" d="M22.3,10.2c0.8,0,1.5,0.7,1.5,1.5s-0.7,1.5-1.5,1.5s-1.5-0.7-1.5-1.5S21.4,10.2,22.3,10.2 M22.3,8.5
		c-1.8,0-3.2,1.4-3.2,3.2s1.4,3.2,3.2,3.2s3.2-1.4,3.2-3.2S24,8.5,22.3,8.5L22.3,8.5z"/>
</g>
</svg>
