<?xml version="1.0" encoding="utf-8"?>
<svg viewBox="369.217 1107.805 2994.903 1490.525" xmlns="http://www.w3.org/2000/svg">
  <g>
    <path d="M578.141,1539.18l208.924,-94.397l0,-251.275l-208.924,94.401l0,251.271Z" style="fill:#195d79;fill-rule:nonzero;"/>
    <path d="M578.141,1539.18l-208.924,-94.397l0,-251.275l208.924,94.401l0,251.271Z" style="fill:#0c2241;fill-rule:nonzero;"/>
    <path d="M787.065,1193.51l-208.924,94.401l-208.924,-94.401l208.924,-85.705l208.924,85.705Z" style="fill:#257da8;fill-rule:nonzero;"/>
    <path d="M721.927,1387.35l4.625,-11.64l-34.919,-13.871l-4.625,11.639l34.919,13.872Zm58.199,23.126l4.625,-11.64l-34.919,-13.875l-4.626,11.639l34.92,13.876Zm58.202,23.122l4.621,-11.64l-34.919,-13.875l-4.625,11.643l34.923,13.872Zm58.198,23.126l4.625,-11.64l-34.919,-13.876l-4.625,11.64l34.919,13.876Zm58.203,23.122l4.621,-11.64l-34.919,-13.876l-4.622,11.64l34.92,13.876Zm58.198,23.121l4.625,-11.639l-34.919,-13.872l-4.625,11.64l34.919,13.871Zm58.199,23.126l4.625,-11.639l-34.919,-13.876l-4.626,11.64l34.92,13.875Zm58.198,23.122l4.625,-11.639l-34.919,-13.876l-4.625,11.64l34.919,13.875Zm58.202,23.126l4.625,-11.639l-34.923,-13.876l-4.625,11.639l34.923,13.876Zm58.199,23.122l4.625,-11.64l-34.919,-13.875l-4.625,11.639l34.919,13.876Zm58.202,23.122l4.621,-11.64l-34.919,-13.871l-4.625,11.639l34.923,13.872Zm58.199,23.126l4.625,-11.64l-34.923,-13.875l-4.622,11.639l34.92,13.876Zm58.198,23.122l4.625,-11.64l-34.919,-13.872l-4.625,11.64l34.919,13.872Zm58.198,23.122l4.626,-11.64l-34.92,-13.872l-4.625,11.64l34.919,13.872Zm58.203,23.126l4.625,-11.64l-34.923,-13.872l-4.621,11.64l34.919,13.872Zm58.198,23.121l4.625,-11.639l-34.919,-13.872l-4.625,11.64l34.919,13.871Zm58.199,23.126l4.625,-11.639l-34.919,-13.876l-4.625,11.64l34.919,13.875Zm58.202,23.126l4.621,-11.644l-34.919,-13.871l-4.617,11.64l34.915,13.875Zm58.198,23.122l4.626,-11.644l-34.923,-13.871l-4.622,11.639l34.919,13.876Zm58.199,23.122l4.625,-11.64l-34.919,-13.871l-4.625,11.639l34.919,13.872Zm24.342,9.672l4.621,-11.64l-1.059,-0.421l-4.625,11.639l1.063,0.422Z" style="fill:#25a8a4;fill-rule:nonzero;"/>
    <path d="M1642.58,2180.97l-423.591,-191.391l0,-509.45l423.591,191.391l0,509.45Z" style="fill:#0c2241;fill-rule:nonzero;"/>
    <path d="M2066.17,1480.71l-423.587,191.392l-423.591,-191.392l423.591,-173.768l423.587,173.768Z" style="fill:#257da8;fill-rule:nonzero;"/>
    <path d="M1399.05,1851.63l34.293,-15.36l-5.117,-11.431l-34.293,15.356l5.117,11.435Zm-57.155,25.59l34.293,-15.356l-5.121,-11.431l-34.293,15.356l5.121,11.431Zm-57.16,25.594l34.294,-15.356l-5.117,-11.431l-34.294,15.356l5.117,11.431Zm-57.155,25.59l34.293,-15.352l-5.121,-11.435l-34.293,15.355l5.121,11.432Zm-57.155,25.593l34.289,-15.355l-5.117,-11.431l-34.293,15.355l5.121,11.431Zm-57.159,25.594l34.293,-15.355l-5.117,-11.431l-34.298,15.355l5.122,11.431Zm-57.159,25.59l34.293,-15.355l-5.114,-11.431l-34.297,15.359l5.118,11.427Zm-57.156,25.594l34.293,-15.355l-5.117,-11.431l-34.297,15.355l5.121,11.431Zm-57.159,25.594l34.293,-15.355l-5.113,-11.431l-34.293,15.355l5.113,11.431Z" style="fill:#25a8a4;fill-rule:nonzero;"/>
    <path d="M779.905,2296.78l289.681,-130.887l0,-348.407l-289.681,130.89l-0,348.404Z" style="fill:#195d79;fill-rule:nonzero;"/>
    <path d="M779.905,2296.78l-289.689,-130.887l-0,-348.407l289.689,130.89l-0,348.404Z" style="fill:#0c2241;fill-rule:nonzero;"/>
    <path d="M1069.59,1818.07l-289.681,130.89l-289.689,-130.89l289.689,-118.842l289.681,118.842Z" style="fill:#257da8;fill-rule:nonzero;"/>
    <path d="M2563.67,1706.08l248.641,-112.342l0,-299.038l-248.641,112.343l0,299.037Z" style="fill:#195d79;fill-rule:nonzero;"/>
    <path d="M2563.67,1706.08l-248.637,-112.342l-0,-299.038l248.637,112.343l0,299.037Z" style="fill:#0c2241;fill-rule:nonzero;"/>
    <path d="M2812.31,1294.7l-248.641,112.343l-248.637,-112.343l248.637,-101.998l248.641,101.998Z" style="fill:#257da8;fill-rule:nonzero;"/>
    <path d="M2407.71,1521.59l34.227,-15.501l-5.165,-11.411l-34.23,15.501l5.168,11.411Zm-57.049,25.834l34.231,-15.501l-5.169,-11.408l-34.226,15.502l5.164,11.407Zm-57.049,25.838l34.231,-15.501l-5.169,-11.412l-34.226,15.502l5.164,11.411Zm-57.045,25.834l34.226,-15.501l-5.164,-11.407l-34.23,15.501l5.168,11.407Zm-57.049,25.838l34.23,-15.501l-5.168,-11.411l-34.226,15.501l5.164,11.411Zm-57.045,25.834l34.226,-15.501l-5.164,-11.407l-34.23,15.501l5.168,11.407Zm-57.049,25.838l34.226,-15.501l-5.164,-11.411l-34.23,15.501l5.168,11.411Zm-57.049,25.834l34.23,-15.501l-5.168,-11.407l-34.23,15.501l5.168,11.407Zm-57.045,25.838l34.23,-15.501l-5.168,-11.411l-34.23,15.501l5.168,11.411Zm-57.049,25.834l34.23,-15.501l-5.168,-11.407l-34.226,15.501l5.164,11.407Zm-52.113,23.602l29.294,-13.265l-5.164,-11.411l-29.298,13.269l5.168,11.407Z" style="fill:#25a8a4;fill-rule:nonzero;"/>
    <path d="M2729.91,1528.61l7.455,-10.066l-30.188,-22.374l-7.459,10.066l30.192,22.374Zm50.31,37.284l7.459,-10.061l-30.188,-22.374l-7.455,10.065l30.184,22.37Zm50.318,37.289l7.455,-10.061l-30.188,-22.374l-7.455,10.061l30.188,22.374Zm50.314,37.285l7.455,-10.061l-30.188,-22.37l-7.459,10.061l30.192,22.37Zm50.314,37.293l7.459,-10.066l-30.192,-22.374l-7.455,10.065l30.188,22.375Zm50.314,37.284l7.455,-10.061l-30.188,-22.374l-7.459,10.065l30.192,22.37Zm50.314,37.289l7.459,-10.061l-30.188,-22.374l-7.459,10.061l30.188,22.374Zm35.6,26.381l7.455,-10.065l-15.474,-11.466l-7.455,10.065l15.474,11.466Z" style="fill:#25a8a4;fill-rule:nonzero;"/>
    <path d="M3155.19,2147.1l208.924,-94.4l0,-251.271l-208.924,94.397l0,251.274Z" style="fill:#195d79;fill-rule:nonzero;"/>
    <path d="M3155.19,2147.1l-208.924,-94.4l0,-251.271l208.924,94.397l0,251.274Z" style="fill:#0c2241;fill-rule:nonzero;"/>
    <path d="M3364.12,1801.43l-208.924,94.397l-208.924,-94.397l208.924,-85.71l208.924,85.71Z" style="fill:#257da8;fill-rule:nonzero;"/>
    <path d="M1642.58,2180.97l423.587,-191.391l0,-509.45l-423.587,191.391l0,509.45Z" style="fill:#195d79;fill-rule:nonzero;"/>
    <path d="M1882.49,1856.25l6.817,-10.51l-31.526,-20.441l-6.817,10.506l31.526,20.445Zm52.546,34.073l6.813,-10.51l-31.526,-20.442l-6.813,10.506l31.526,20.446Zm52.545,34.072l6.814,-10.506l-31.526,-20.445l-6.817,10.51l31.529,20.441Zm52.542,34.077l6.814,-10.51l-31.526,-20.445l-6.814,10.51l31.526,20.445Zm52.546,34.073l6.814,-10.51l-31.526,-20.441l-6.814,10.51l31.526,20.441Zm52.542,34.077l6.818,-10.51l-31.53,-20.446l-6.814,10.51l31.526,20.446Zm52.546,34.072l6.814,-10.51l-31.53,-20.445l-6.81,10.51l31.526,20.445Z" style="fill:#25a8a4;fill-rule:nonzero;"/>
    <path d="M2342.6,2598.33l289.685,-130.89l0,-348.404l-289.685,130.891l-0,348.403Z" style="fill:#195d79;fill-rule:nonzero;"/>
    <path d="M2342.6,2598.33l-289.689,-130.89l-0,-348.404l289.689,130.891l-0,348.403Z" style="fill:#0c2241;fill-rule:nonzero;"/>
    <path d="M2632.28,2119.61l-289.685,130.89l-289.689,-130.89l289.689,-118.841l289.685,118.841Z" style="fill:#257da8;fill-rule:nonzero;"/>
  </g>
</svg>